<svg width="252" height="209" viewBox="0 0 252 209" fill="none" xmlns="http://www.w3.org/2000/svg">
<g clip-path="url(#clip0_202_28)">
<path d="M35.7448 28.4461H79.9943V41.879H51.1531V51.3611H77.2287V64.0038H51.1531V83.758H35.7448V28.4461Z" fill="white"/>
<path d="M85.1306 28.4461H111.206C115.552 28.4461 119.108 28.8412 121.873 30.0265C124.639 31.2117 127.01 32.397 128.985 34.3724C132.146 37.5331 133.726 41.879 133.726 47.0151C133.726 51.3611 132.541 54.9168 130.565 57.6824C128.59 60.448 125.824 62.4235 122.269 64.0038L135.306 83.363H117.528L107.255 66.7694H100.539V83.363H85.1306V28.4461V28.4461ZM110.811 54.9168C113.577 54.9168 115.552 54.5218 116.737 53.3365C118.318 52.1512 118.713 50.5709 118.713 48.5955C118.713 46.225 117.923 44.6446 116.342 43.8545C114.762 42.6692 112.787 42.2741 110.416 42.2741H100.539V55.3119H110.811V54.9168Z" fill="white"/>
<path d="M159.407 28.0511H174.025L197.335 83.363H181.136L177.185 73.4859H155.851L151.9 83.363H135.702L159.407 28.0511ZM172.84 62.0284L166.518 46.225L160.197 62.0284H172.84Z" fill="white"/>
<path d="M199.705 28.4461H213.928L236.843 57.6824V28.4461H251.856V83.758H238.424L214.718 53.3365V83.758H199.705V28.4461Z" fill="white"/>
<path d="M57.8695 146.972C53.9186 146.972 50.3628 146.181 46.8071 144.996C43.2513 143.416 40.4857 141.44 37.7201 139.07C34.9545 136.699 32.9791 133.539 31.7938 129.983C29.8184 126.032 29.4233 122.476 29.4233 118.525C29.4233 114.575 30.2135 110.624 31.7938 107.463C33.3742 103.907 35.3496 100.747 37.7201 98.3761C40.4857 95.6105 43.2513 93.6351 46.8071 92.4499C50.3628 90.8695 54.3137 90.0793 58.2646 90.0793C61.0301 90.0793 63.7957 90.4744 66.1663 90.8695C68.5368 91.2646 70.5122 92.0548 72.4876 93.24C74.463 94.4253 76.0434 95.6105 77.6237 96.7958C79.2041 98.3761 80.3893 99.9565 81.5746 101.537L70.1171 110.624C68.5368 108.648 66.9564 107.068 64.981 105.883C63.0056 104.697 60.6351 104.302 58.2646 104.302C56.2891 104.302 54.7088 104.697 53.1284 105.488C51.5481 106.278 49.9678 107.463 49.1776 108.648C48.3874 109.834 47.2022 111.414 46.412 113.389C45.6218 115.365 45.6218 116.945 45.6218 118.921C45.6218 120.896 46.0169 122.871 46.412 124.847C47.2022 126.822 47.9923 128.403 49.1776 129.588C50.3628 130.773 51.5481 131.958 53.1284 132.749C54.7088 133.539 56.6842 133.934 58.2646 133.934C59.8449 133.934 61.0301 133.934 62.2154 133.539C63.4007 133.144 64.5859 132.749 65.3761 132.353C66.1662 131.563 67.3515 131.168 68.1417 130.378C68.9318 129.588 69.722 128.798 70.5122 127.612L81.9697 135.909C80.7844 137.885 79.2041 139.465 77.6237 141.045C76.0434 142.626 74.463 143.811 72.4876 144.996C70.5122 146.181 68.1417 146.972 65.7712 147.762C63.4007 146.577 60.6351 146.972 57.8695 146.972Z" fill="white"/>
<path d="M85.5252 90.4744H129.775V103.512H100.538V111.809H127.009V123.662H100.538V132.353H130.17V145.391H85.5252V90.4744Z" fill="white"/>
<path d="M158.221 146.576C153.48 146.576 148.739 145.786 143.998 144.206C139.652 142.626 135.701 140.255 132.145 137.49L140.837 127.217C146.368 131.563 152.295 133.934 158.616 133.934C160.591 133.934 162.172 133.539 163.357 133.144C164.542 132.353 164.937 131.563 164.937 130.378C164.937 129.983 164.937 129.193 164.542 128.798C164.147 128.403 163.752 128.007 162.962 127.612C162.172 127.217 161.382 126.822 160.196 126.427C159.011 126.032 157.431 125.637 155.455 125.242C152.69 124.452 149.924 123.662 147.159 122.871C144.393 122.081 142.418 120.896 140.442 119.711C138.467 118.525 137.281 116.945 136.096 114.97C134.911 112.994 134.516 110.624 134.516 107.858C134.516 105.488 134.911 103.117 136.096 100.747C136.886 98.7712 138.467 96.7958 140.442 95.2154C142.418 93.6351 144.393 92.4498 147.159 91.6597C149.924 90.8695 152.69 90.4744 156.246 90.4744C160.987 90.4744 165.332 91.2646 168.888 92.4498C172.444 93.6351 176 95.6105 178.765 97.981L171.259 108.648C168.888 106.673 166.123 105.488 163.357 104.697C160.591 103.907 158.221 103.512 155.85 103.512C153.875 103.512 152.69 103.907 151.9 104.697C151.109 105.488 150.714 106.278 150.714 107.068C150.714 107.858 150.714 108.253 151.109 108.648C151.504 109.043 151.9 109.438 152.69 109.834C153.48 110.229 154.27 110.624 155.455 111.019C156.641 111.414 158.221 111.809 160.196 112.204C163.357 112.994 166.123 113.784 168.888 114.575C171.259 115.365 173.629 116.55 175.21 117.735C177.185 118.921 178.37 120.501 179.16 122.476C179.951 124.452 180.741 126.427 180.741 129.193C180.741 131.958 180.346 134.724 179.16 136.699C177.975 138.675 176.395 140.65 174.815 142.231C172.839 143.811 170.469 144.996 167.703 145.786C164.542 146.181 161.382 146.576 158.221 146.576Z" fill="white"/>
<path d="M57.8695 209C53.9186 209 50.3628 208.21 46.8071 207.025C43.2513 205.444 40.4857 203.469 37.7201 201.098C34.9545 198.728 32.9791 195.567 31.7938 192.011C30.6086 188.456 29.4233 184.9 29.4233 180.554C29.4233 176.603 30.2135 172.652 31.7938 169.491C33.3742 165.936 35.3496 162.775 37.7201 160.405C40.4857 157.639 43.2513 155.663 46.8071 154.478C50.3628 152.898 54.3137 152.108 58.2646 152.108C61.0301 152.108 63.7957 152.503 66.1663 152.898C68.5368 153.293 70.5122 154.083 72.4876 155.268C74.463 156.454 76.0434 157.639 77.6237 158.824C79.2041 160.405 80.3893 161.985 81.5746 163.565L70.1171 172.652C68.5368 170.677 66.9564 169.096 64.981 167.911C63.0056 166.726 60.6351 166.331 58.2646 166.331C56.2891 166.331 54.7088 166.726 53.1284 167.516C51.5481 168.306 49.9678 169.491 49.1776 170.677C48.3874 171.862 47.2022 173.442 46.412 175.418C45.6218 177.393 45.6218 178.974 45.6218 180.949C45.6218 182.924 46.0169 184.9 46.412 186.875C47.2022 188.851 47.9923 190.431 49.1776 191.616C50.3628 192.801 51.5481 193.987 53.1284 194.777C54.7088 195.567 56.6842 195.962 58.2646 195.962C59.8449 195.962 61.0301 195.962 62.2154 195.567C63.4007 195.172 64.5859 194.777 65.3761 194.382C66.1662 193.592 67.3515 193.197 68.1417 192.406C68.9318 191.616 69.722 190.826 70.5122 189.641L81.9697 197.938C80.7844 199.913 79.2041 201.493 77.6237 203.074C76.0434 204.654 74.463 205.839 72.4876 207.025C70.5122 208.21 68.1417 209 65.7712 209.79C63.4007 208.605 60.6351 209 57.8695 209Z" fill="white"/>
<path d="M111.601 209C107.255 209 103.304 208.21 99.7485 206.629C96.1927 205.049 93.0321 203.074 90.2665 200.703C87.5009 197.938 85.5254 195.172 83.9451 191.616C82.3648 188.06 81.5746 184.505 81.5746 180.554C81.5746 176.603 82.3648 173.047 83.9451 169.491C85.5254 165.936 87.5009 162.775 90.2665 160.405C93.0321 157.639 96.1927 155.663 99.7485 154.083C103.304 152.503 107.255 151.713 111.601 151.713C115.947 151.713 119.898 152.503 123.454 154.083C127.009 155.663 130.17 157.639 132.936 160.009C135.701 162.775 137.677 165.541 139.257 169.096C140.837 172.652 141.628 176.208 141.628 180.159C141.628 184.11 140.837 187.665 139.257 191.221C137.677 194.777 135.701 197.938 132.936 200.308C130.17 203.074 127.009 205.049 123.454 206.629C119.898 208.21 115.947 209 111.601 209ZM111.601 195.172C113.576 195.172 115.552 194.777 117.527 193.987C119.108 193.197 120.688 192.011 121.873 190.826C123.059 189.641 123.849 188.06 124.639 186.085C125.429 184.11 125.824 182.529 125.824 180.554C125.824 178.578 125.429 176.603 124.639 175.023C123.849 173.047 123.059 171.467 121.873 170.282C120.688 169.096 119.108 167.911 117.527 167.121C115.947 166.331 113.972 165.936 111.601 165.936C109.626 165.936 107.65 166.331 106.07 167.121C104.49 167.911 102.909 169.096 101.724 170.282C100.539 171.467 99.3534 173.047 98.9583 175.023C98.1682 176.998 98.1682 178.578 98.1682 180.554C98.1682 182.529 98.5632 184.505 99.3534 186.085C100.144 188.06 100.934 189.641 102.119 190.826C103.304 192.011 104.885 193.197 106.465 193.987C107.65 194.777 109.626 195.172 111.601 195.172Z" fill="white"/>
<path d="M251.856 0H0.582214V208.21H15.2004V14.6181H251.856V0Z" fill="white"/>
</g>
<defs>
<clipPath id="clip0_202_28">
<rect width="251.274" height="209" fill="white" transform="translate(0.582214)"/>
</clipPath>
</defs>
</svg>
