<svg width="2011" height="347" viewBox="0 0 2011 347" fill="none" xmlns="http://www.w3.org/2000/svg">
<path d="M510.316 96.95V346.99H401.465V128.261C401.465 128.261 397.115 96.5297 365.109 96.5297H308.44V346.99H202.639V96.5297H107.053V346.99H0.0789185V0.396484H397.115C508.107 0.396484 510.316 96.95 510.316 96.95M903.275 0.396484H1161.82L1043.44 96.5198H903.275V0.396484ZM614.533 130.744H772.312V114.859C772.312 114.859 772.312 92.1794 734.372 92.1794H533.464V0.40618H767.61C889.726 0.40618 878.123 113.207 878.123 113.207V269.313L1207.24 0.416025H1496.88C1628.39 0.416025 1644.98 79.7644 1644.98 175.604C1644.98 244.17 1635.98 347 1504.41 347H1264.72L1264.52 77.5845L933.54 347L614.524 346.912C598.697 346.912 510.375 352.582 510.375 235.314C510.384 123.755 598.707 130.744 614.533 130.744M1374.53 250.857H1466.65C1525.49 250.857 1537.91 230.807 1537.91 176.357C1537.91 121.751 1525.48 96.5297 1466.65 96.5297H1374.53V250.857ZM646.94 260.251H770.435L770.503 209.467H647.018C636.851 209.467 617.085 209.467 617.085 234.209C617.085 259.303 636.783 260.251 646.94 260.251ZM1233.48 250.857V346.99H978.606L1094.43 250.857H1233.48ZM1746.61 130.744H1904.46V114.859C1904.46 114.859 1904.46 92.1794 1866.44 92.1794H1665.55V0.40618H1899.76C2021.73 0.40618 2010.19 113.207 2010.19 113.207V346.912H1746.6C1730.8 346.912 1642.48 352.582 1642.48 235.314C1642.48 123.755 1730.81 130.744 1746.61 130.744M1779.03 260.251H1902.47L1902.6 209.467H1779.11C1768.95 209.467 1749.13 209.467 1749.13 234.209C1749.12 259.303 1768.87 260.251 1779.03 260.251Z" fill="white"/>
</svg>
