<svg width="2162" height="1339" viewBox="0 0 2162 1339" fill="none" xmlns="http://www.w3.org/2000/svg">
<path d="M1165.35 4.24495C1158.29 5.30847 1151.48 31.3388 1137.85 44.9311C1127.82 54.6973 1115.38 54.1267 1108.74 66.2145C1106.21 70.715 1107.02 78.445 1104.16 85.8637C1098.57 100.675 1078.95 101.985 1078.95 118.145C1078.9 135.59 1095.32 138.923 1109.56 151.296C1120.66 161.231 1121.72 168.105 1135.23 172.943C1146.7 176.847 1163.82 164.058 1179.21 168.663C1191.85 172.424 1203.95 175.135 1206.82 188.104C1209.32 200.088 1206.64 218.635 1191.32 216.482C1186.17 215.899 1163.73 208.376 1136.22 211.281C1103 215.068 1065.14 225.911 1061.39 262.94C1059.37 283.614 1084.94 308.023 1109.68 303.068C1126.77 299.696 1118.69 279.541 1127.99 269.749C1140.17 257.194 1209.32 313.535 1273.6 313.535C1300.66 313.535 1320.81 306.7 1340.77 285.754C1342.66 284.158 1344.91 280.734 1347.81 280.514C1350.55 280.747 1355.27 283.419 1356.84 284.56C1408.59 326.155 1447.75 409.615 1637.99 410.588C1664.74 410.756 1695.2 423.519 1720.07 446.203C1742.28 466.734 1755.27 498.678 1767.9 531.077C1786.96 579.662 1821.05 626.962 1872.78 679.555C1875.62 682.369 1918.2 715.494 1921.6 717.945C1922.13 718.308 1925.27 725.779 1924.18 729.955C1922.89 761.524 1918.33 853.246 1986.72 857.37C2003.4 858.226 1999.04 846.45 1999.04 838.395C1999.01 822.417 1996.08 806.529 2004.51 790.161C2016.05 767.697 1980.09 757.334 1981.13 708.672C1981.91 672.421 1951.39 678.595 1935.98 650.969C1927.07 634.952 1919.16 626.456 1919.72 606.898C1923.22 496.707 1896.27 424.297 1882.84 406.515C1872.34 393.092 1863.67 387.774 1873.31 381.548C1930.34 343.845 1943.29 308.788 1943.29 308.788C1973.64 237.441 2000.93 172.281 2038.61 143.605C2046.18 137.678 2065.61 123.139 2077.52 117.471C2112.68 100.909 2131.15 90.87 2141.36 80.9482C2157.45 65.2418 2170.27 32.4282 2154.78 12.5456C2135.53 -12.0062 2102.25 7.47444 2087.56 16.1901C1982.62 78.458 1967.18 188.312 1930.82 251.371C1901.83 301.784 1854.68 338.8 1812.53 341.835C1780.95 344.183 1746.88 337.788 1712.96 322.899C1630.48 286.726 1585.34 240.035 1574.68 231.786C1552.52 214.692 1380.46 45.7741 1241.09 38.9002C1241.09 38.9002 1223.78 4.25793 1219.43 3.68726C1209.24 2.37731 1198.8 24.3611 1191.33 26.9291C1184.28 29.2377 1172.45 3.10361 1165.35 4.24495ZM551.703 1012.26C538.578 1011.93 527.437 1001.17 527.437 987.859L527.463 553.048H384.16V1032.33C384.16 1055.83 403.187 1074.99 426.558 1074.99H677.03C700.531 1074.99 719.338 1055.82 719.338 1032.33V553.048H576.151L576.035 987.859C576.048 1001.17 564.881 1011.93 551.703 1012.26ZM1031.47 553.048H814.613C808.482 553.058 802.412 554.277 796.751 556.635C791.091 558.993 785.951 562.444 781.625 566.79C777.299 571.136 773.873 576.292 771.542 581.964C769.211 587.635 768.02 593.711 768.039 599.843V1074.99H911.485V639.167C911.502 636.002 912.142 632.872 913.37 629.956C914.598 627.039 916.389 624.393 918.64 622.17C920.892 619.946 923.56 618.188 926.491 616.996C929.423 615.804 932.561 615.202 935.725 615.225C949.11 615.225 959.849 625.549 960.16 638.791V1075H1102.98V638.778C1103.19 625.536 1113.9 615.212 1127.28 615.212C1140.52 615.212 1151.46 625.795 1151.57 639.154V1074.99H1295.03V599.843C1295.04 593.709 1293.84 587.632 1291.51 581.961C1289.17 576.289 1285.74 571.133 1281.42 566.787C1277.09 562.442 1271.94 558.992 1266.28 556.634C1260.62 554.277 1254.55 553.058 1248.41 553.048H1031.47ZM288.573 943.84H143.804V1074.99H0.566162V553.048H289.481C315.342 553.048 335.536 574.072 335.536 600.05V896.772C335.555 902.95 334.354 909.07 332.002 914.782C329.65 920.495 326.193 925.686 321.829 930.059C317.466 934.432 312.282 937.901 306.575 940.265C300.868 942.63 294.75 943.845 288.573 943.84ZM192.402 640.062C192.447 636.837 191.854 633.636 190.659 630.64C189.465 627.645 187.69 624.915 185.439 622.606C183.187 620.298 180.502 618.457 177.537 617.188C174.572 615.919 171.386 615.247 168.161 615.212H143.804V879.211H168.161C180.781 879.211 192.519 869.173 192.402 854.685V640.062ZM1851.04 1013.12C1851.04 1048.58 1822.61 1077.42 1787.42 1077.42C1778.99 1077.43 1770.63 1075.77 1762.84 1072.54C1755.05 1069.31 1747.97 1064.57 1742.01 1058.6C1736.06 1052.62 1731.34 1045.53 1728.14 1037.72C1724.93 1029.92 1723.3 1021.56 1723.34 1013.12C1723.34 978.184 1751.91 948.937 1786.39 948.937C1822.57 948.898 1851.04 977.276 1851.04 1013.12ZM1786.5 958.275C1757.7 958.275 1733.53 983.138 1733.53 1013.29C1733.53 1043.55 1757.7 1068.21 1787.38 1068.21C1816.84 1068.21 1840.73 1043.55 1840.73 1013.29C1840.73 983.086 1816.84 958.275 1787.38 958.275H1786.5Z" fill="white"/>
<path d="M1817.47 1050.31H1800.39L1778.41 1021.04V1050.31H1764.45V976.316H1779.1C1799.08 976.316 1809.67 983.838 1809.67 998.274C1809.67 1007.9 1803.42 1016.41 1794.7 1019L1793.66 1019.36L1817.47 1050.31ZM1780.81 1009.03C1790.74 1009.03 1796.04 1005.51 1796.04 998.455C1796.04 992.178 1790.93 988.935 1781.22 988.935H1778.37V1009.05L1780.81 1009.03ZM1535.5 1074.99V943.943H1486.77V1074.99H1343.64V599.843C1343.64 573.903 1364.52 553.048 1390.22 553.048H1632.06C1638.19 553.053 1644.27 554.268 1649.93 556.623C1655.6 558.979 1660.75 562.429 1665.08 566.775C1669.41 571.122 1672.84 576.28 1675.17 581.954C1677.51 587.628 1678.7 593.707 1678.69 599.843V1074.99H1535.5ZM1535.5 879.315V638.972C1535.15 625.691 1524.42 615.471 1511.06 615.471C1504.69 615.46 1498.57 617.959 1494.02 622.428C1489.47 626.896 1486.87 632.975 1486.77 639.348V879.315H1535.5ZM4.58679 1338.21V1194.82H20.5785V1208.29C24.3397 1203.03 28.6068 1199.05 33.3667 1196.41C38.1007 1193.81 43.8592 1192.44 50.6294 1192.44C59.4878 1192.44 67.2826 1194.77 74.0528 1199.27C80.849 1203.86 85.9461 1210.28 89.3831 1218.57C92.859 1226.87 94.571 1235.96 94.571 1245.85C94.571 1256.45 92.6774 1266.02 88.8513 1274.52C85.0512 1283 79.5261 1289.5 72.263 1294.04C65.4297 1298.42 57.489 1300.76 49.3714 1300.79C43.4961 1300.79 38.2693 1299.55 33.6131 1297.1C29.1741 1294.81 25.2672 1291.62 22.1479 1287.72V1338.19L4.58679 1338.21ZM20.4877 1247.23C20.4877 1260.55 23.1854 1270.43 28.5809 1276.81C33.9763 1283.18 40.5519 1286.37 48.2041 1286.37C55.9989 1286.37 62.7043 1283.08 68.2683 1276.42C73.8324 1269.83 76.6338 1259.6 76.6338 1245.75C76.6338 1232.52 73.8972 1222.66 68.4758 1216.06C63.0415 1209.5 56.5437 1206.21 49.0212 1206.21C41.5247 1206.21 34.8971 1209.71 29.1256 1216.7C23.3411 1223.73 20.4877 1233.92 20.4877 1247.23ZM283.631 1298.51V1283.27C275.525 1295 264.579 1300.83 250.714 1300.83C244.618 1300.83 238.886 1299.67 233.581 1297.32C228.289 1294.98 224.359 1292.01 221.791 1288.49C219.052 1284.59 217.198 1280.14 216.357 1275.45C215.657 1271.99 215.294 1266.53 215.294 1259.02V1194.8H232.855V1252.3C232.855 1261.5 233.231 1267.67 233.931 1270.86C235.06 1275.49 237.407 1279.1 240.961 1281.75C244.566 1284.39 248.989 1285.71 254.255 1285.71C259.52 1285.71 264.449 1284.36 269.092 1281.66C273.722 1278.98 276.978 1275.28 278.884 1270.64C280.817 1265.97 281.79 1259.21 281.79 1250.38V1194.86H299.351V1298.51H283.631ZM426.805 1298.51V1194.86H442.498V1209.37C445.757 1204.29 450.221 1200.1 455.494 1197.17C460.902 1194.07 467.063 1192.5 473.95 1192.5C481.615 1192.5 487.918 1194.1 492.808 1197.29C497.736 1200.5 501.212 1204.92 503.209 1210.65C511.445 1198.55 522.106 1192.5 535.232 1192.5C545.53 1192.5 553.428 1195.38 558.966 1201.06C564.491 1206.74 567.267 1215.52 567.267 1227.35V1298.51H549.81V1233.21C549.81 1226.17 549.239 1221.09 548.111 1218.01C546.924 1214.91 544.744 1212.28 541.911 1210.55C538.737 1208.61 535.073 1207.62 531.354 1207.7C524.052 1207.7 518.021 1210.13 513.196 1214.99C508.397 1219.82 505.959 1227.59 505.959 1238.25V1298.51H488.398V1231.17C488.398 1223.34 486.971 1217.48 484.092 1213.58C481.226 1209.69 476.557 1207.74 470.033 1207.74C465.104 1207.74 460.539 1209.05 456.337 1211.68C452.134 1214.27 449.074 1218.07 447.206 1223.08C445.312 1228.11 444.366 1235.32 444.366 1244.76V1298.54H426.805V1298.51ZM760.893 1285.7C754.369 1291.23 748.104 1295.13 742.099 1297.41C735.898 1299.72 729.327 1300.87 722.71 1300.82C711.309 1300.82 702.581 1298.04 696.459 1292.49C690.363 1286.9 687.289 1279.8 687.289 1271.14C687.289 1266.03 688.418 1261.42 690.752 1257.22C692.919 1253.17 696.029 1249.71 699.818 1247.12C703.579 1244.61 707.782 1242.66 712.477 1241.38C717.617 1240.17 722.828 1239.29 728.079 1238.75C742.268 1237.05 752.735 1235.05 759.427 1232.66C759.492 1230.26 759.531 1228.73 759.531 1228.1C759.531 1220.94 757.871 1215.89 754.537 1212.98C750.076 1208.97 743.383 1207.01 734.551 1207.01C726.289 1207.01 720.194 1208.44 716.212 1211.34C712.282 1214.25 709.39 1219.37 707.483 1226.74L690.324 1224.36C691.894 1217.06 694.462 1211.09 698.028 1206.59C701.595 1202.04 706.796 1198.57 713.553 1196.11C720.31 1193.68 728.144 1192.44 737.08 1192.44C745.939 1192.44 753.098 1193.51 758.636 1195.57C764.174 1197.67 768.234 1200.25 770.866 1203.42C773.473 1206.58 775.263 1210.56 776.327 1215.4C776.897 1218.38 777.196 1223.78 777.196 1231.59V1255.02C777.196 1271.38 777.559 1281.73 778.324 1286.01C779.063 1290.34 780.555 1294.5 782.76 1298.47H764.395C762.456 1294.46 761.269 1290.13 760.893 1285.7ZM759.414 1246.45C753.02 1249.08 743.461 1251.27 730.725 1253.12C723.501 1254.15 718.365 1255.32 715.395 1256.63C712.556 1257.79 710.139 1259.79 708.469 1262.36C706.848 1264.84 706.005 1267.6 706.005 1270.69C706.005 1275.39 707.807 1279.29 711.335 1282.42C714.85 1285.52 720.064 1287.06 726.899 1287.06C733.656 1287.06 739.687 1285.62 744.953 1282.64C750.008 1279.9 754.074 1275.64 756.574 1270.47C758.48 1266.51 759.401 1260.64 759.401 1252.91L759.414 1246.45ZM909.319 1298.51V1278.47H929.344V1298.51H909.319ZM1127.48 1260.51L1144.72 1262.79C1142.83 1274.67 1138.01 1284.02 1130.25 1290.73C1122.48 1297.47 1112.92 1300.82 1101.6 1300.82C1087.42 1300.82 1075.99 1296.19 1067.38 1286.93C1058.74 1277.67 1054.41 1264.39 1054.41 1247.05C1054.41 1235.87 1056.3 1226.06 1060 1217.66C1063.72 1209.27 1069.38 1202.96 1076.98 1198.77C1084.54 1194.57 1093.05 1192.4 1101.7 1192.47C1112.94 1192.47 1122.19 1195.34 1129.31 1201.03C1136.48 1206.72 1141.06 1214.8 1143.1 1225.3L1126.02 1227.92C1124.37 1220.96 1121.49 1215.72 1117.38 1212.2C1113.26 1208.68 1108.26 1206.93 1102.39 1206.93C1093.52 1206.93 1086.33 1210.1 1080.8 1216.45C1075.28 1222.78 1072.49 1232.82 1072.49 1246.54C1072.49 1260.46 1075.18 1270.59 1080.52 1276.92C1085.86 1283.21 1092.81 1286.37 1101.4 1286.37C1108.27 1286.37 1114.06 1284.24 1118.68 1280.02C1123.29 1275.81 1126.23 1269.3 1127.48 1260.51ZM1253.12 1246.64C1253.12 1227.45 1258.44 1213.21 1269.15 1203.99C1278.06 1196.34 1288.9 1192.44 1301.73 1192.44C1316.01 1192.44 1327.65 1197.11 1336.69 1206.48C1345.73 1215.82 1350.24 1228.69 1350.24 1245.15C1350.24 1258.51 1348.24 1269 1344.23 1276.64C1340.34 1284.2 1334.25 1290.41 1326.78 1294.46C1319.11 1298.7 1310.48 1300.88 1301.72 1300.79C1287.23 1300.79 1275.51 1296.16 1266.53 1286.84C1257.6 1277.56 1253.12 1264.18 1253.12 1246.64ZM1271.21 1246.64C1271.21 1259.91 1274.11 1269.85 1279.9 1276.46C1285.69 1283.1 1293 1286.4 1301.77 1286.4C1310.51 1286.4 1317.75 1283.06 1323.56 1276.44C1329.33 1269.8 1332.22 1259.67 1332.22 1246.06C1332.22 1233.25 1329.33 1223.52 1323.51 1216.91C1317.66 1210.3 1310.43 1207.01 1301.77 1207.01C1293 1207.01 1285.71 1210.3 1279.9 1216.88C1274.07 1223.44 1271.21 1233.39 1271.21 1246.64ZM1470.79 1298.51V1194.86H1486.47V1209.37C1489.73 1204.29 1494.2 1200.1 1499.47 1197.17C1504.86 1194.07 1511.06 1192.5 1517.94 1192.5C1525.6 1192.5 1531.89 1194.1 1536.78 1197.29C1541.72 1200.5 1545.19 1204.92 1547.21 1210.65C1555.45 1198.55 1566.11 1192.5 1579.25 1192.5C1589.53 1192.5 1597.42 1195.38 1602.94 1201.06C1608.51 1206.74 1611.27 1215.52 1611.27 1227.35V1298.51H1593.8V1233.21C1593.8 1226.17 1593.21 1221.09 1592.1 1218.01C1590.93 1214.95 1588.86 1212.43 1585.89 1210.55C1582.72 1208.61 1579.06 1207.62 1575.34 1207.7C1568.05 1207.7 1562.04 1210.13 1557.2 1214.99C1552.41 1219.82 1549.96 1227.59 1549.96 1238.25V1298.51H1532.4V1231.17C1532.4 1223.34 1530.97 1217.48 1528.09 1213.58C1525.23 1209.69 1520.57 1207.74 1514.03 1207.74C1509.09 1207.74 1504.55 1209.05 1500.32 1211.68C1496.15 1214.27 1493.07 1218.07 1491.21 1223.08C1489.31 1228.11 1488.37 1235.32 1488.37 1244.76V1298.54H1470.79V1298.51Z" fill="white"/>
</svg>
