<svg width="2500" height="1521" viewBox="0 0 2500 1521" fill="none" xmlns="http://www.w3.org/2000/svg">
<path d="M1217.37 792.191C1219.58 792.612 1221.79 793.004 1223.99 793.395L1217.37 792.191ZM1235.44 795.199C1238.01 795.584 1240.58 795.924 1243.16 796.264L1235.44 795.199ZM1254.54 797.491C1257.05 797.72 1259.55 797.934 1262.06 798.127L1254.54 797.491ZM1264.76 798.311C1266.88 798.467 1269 798.592 1271.12 798.703L1264.76 798.311ZM1274.21 798.866C1276.72 798.977 1279.24 799.073 1281.75 799.154L1274.21 798.866ZM1284.25 799.184C1289.86 799.333 1295.48 799.338 1301.1 799.199L1284.25 799.184ZM1303.78 799.154C1306.4 799.075 1309.02 798.974 1311.63 798.851L1303.78 799.154ZM1314.1 798.733C1316.37 798.607 1318.6 798.467 1320.86 798.311L1314.1 798.733ZM1323.2 798.149C1325.65 797.964 1328.12 797.757 1330.56 797.528L1323.2 798.149ZM1343.15 796.123C1345.04 795.902 1346.92 795.658 1348.79 795.362L1343.15 796.123ZM1688.06 161.717C1686.02 160.621 1683.93 159.624 1681.8 158.731L1688.06 161.717ZM1667.56 154.347C1664.95 153.812 1662.31 153.407 1659.65 153.135L1667.56 154.347ZM2158.47 537.742L2157.05 537.942L2158.47 537.742ZM325.884 426.345C316.785 417.995 309.871 407.543 305.747 395.903C302.391 386.182 298.044 374.036 298.044 363.724C298.258 317.225 325.396 282.688 354.611 266.698C367.888 259.438 372.819 254.456 374.844 251.898C373.872 251.468 372.835 251.204 371.776 251.114C332.012 251.114 311.624 235.664 301.614 222.587C292.13 210.338 287.288 194.547 287.288 177.279C287.288 168.888 288.471 160.106 290.799 151.124C302.006 132.613 312.651 137.699 319.171 147.169C323.326 153.098 351.794 173.279 386.872 176.48C412.398 178.905 426.155 191.391 433.311 201.363C441.561 212.91 444.725 226.823 444.725 238.658C444.725 243.5 444.178 248.047 443.136 252.09C439.292 267.688 422.858 281.749 399.971 299.661L386.99 310.424C367.984 327.057 357.524 345.568 357.524 361.255C357.524 365.173 358.211 368.995 359.534 372.521C360.081 373.97 360.739 375.367 361.515 376.69C370.009 391.068 394.013 400.087 428.831 387.904C444.925 382.323 475.906 362.822 494.824 344.067C517.082 321.86 546.793 316.53 575.401 314.268C600.211 312.398 615.483 306.314 626.239 294.22C658.027 258.403 688.617 253.369 717.248 251.24C728.204 250.397 728.795 249.614 730.222 247.684C746.005 226.668 762.216 215.542 776.765 209.066C787.853 204.135 797.981 201.888 806.275 200.069L816.344 197.593L818.857 196.706C834.795 191.576 847.133 187.325 879.557 165.414L880.939 164.541L880.947 164.527L882.307 163.676L882.322 163.669L883.689 162.863L883.711 162.856L885.079 162.072L885.101 162.065L886.476 161.34L886.52 161.326L887.881 160.616L887.925 160.601L889.293 159.936L889.352 159.921L890.727 159.285L890.779 159.256L892.161 158.679L892.22 158.657L893.595 158.088L893.669 158.073L895.051 157.555L895.118 157.518L896.485 157.031L897.942 156.543L898.038 156.521L899.398 156.084L899.487 156.062L900.869 155.663L900.965 155.641L902.333 155.264L902.436 155.234L903.811 154.909L903.937 154.879L905.29 154.569L905.401 154.539L906.783 154.258L906.901 154.229L908.269 153.978L908.395 153.955L909.762 153.726L909.888 153.711L911.241 153.512L911.381 153.482L912.741 153.327L912.882 153.297L914.22 153.15L914.368 153.142L915.721 153.016L915.876 153.002L917.221 152.906L917.377 152.891L918.7 152.809L918.855 152.802L920.193 152.743L921.686 152.699H921.842L923.172 152.684H924.828L926.144 152.699L926.299 152.706H926.454C927.401 152.728 928.347 152.787 929.293 152.839L930.594 152.92L930.779 152.935L932.058 153.031L932.25 153.046L933.529 153.172L933.729 153.194L935 153.32L935.207 153.334L936.471 153.49L936.671 153.519L937.928 153.674L938.142 153.711L939.384 153.896L939.591 153.933L940.84 154.125L941.062 154.17L942.282 154.384L942.511 154.421L943.723 154.643L943.945 154.695C945.882 155.057 947.789 155.486 949.659 155.944L950.835 156.24L951.071 156.306C952.956 156.794 954.819 157.311 956.653 157.859L957.739 158.199L958.006 158.28C961.643 159.426 965.169 160.719 968.584 162.087L969.545 162.486L970.802 163.004C1040.14 68.8016 1149.77 6.12095 1274.37 0.45094V0.42137C1280.51 0.145574 1286.65 0.00508284 1292.79 0C1296.85 0.00267132 1300.91 0.0642816 1304.96 0.184811C1306.98 0.251344 1309 0.332661 1311.01 0.413978H1311.03C1313.03 0.51008 1315.05 0.606182 1317.05 0.731853C1437.62 7.97646 1543.81 68.6981 1612.19 159.485C1621.96 156.092 1632.6 153.63 1643.46 152.891L1643.74 152.876L1644.77 152.809L1645.84 152.758L1646.1 152.743L1646.38 152.736L1647.43 152.706L1647.71 152.691L1648.76 152.684L1649.05 152.676L1650.12 152.669H1650.38L1651.45 152.676H1651.71L1653.04 152.699L1654.12 152.743L1654.35 152.75L1655.43 152.802L1655.68 152.817L1656.77 152.891L1656.98 152.906L1658.08 152.994L1658.29 153.009L1659.4 153.12L1659.6 153.142C1662.26 153.414 1664.9 153.818 1667.51 154.355L1668.67 154.591L1668.83 154.628L1669.97 154.902L1670.14 154.931L1671.29 155.227L1671.44 155.264L1672.61 155.574L1672.74 155.611L1673.94 155.944L1674.05 155.981L1675.21 156.343L1675.35 156.38L1676.54 156.772L1676.64 156.801L1677.93 157.252L1679.13 157.681L1679.21 157.718L1680.4 158.184L1680.48 158.213L1681.7 158.701L1681.77 158.738C1683.88 159.625 1685.96 160.609 1688.03 161.725L1688.06 161.747L1689.28 162.398L1689.3 162.412L1690.52 163.115L1690.54 163.122L1691.76 163.861L1691.77 163.869L1692.98 164.63V164.637L1694.2 165.421C1716.54 180.605 1729.45 187.295 1740.46 191.664C1745.41 193.638 1750.01 195.124 1754.89 196.713L1757.46 197.6L1767.63 200.077C1773.14 201.289 1779.44 202.686 1786.26 204.919C1803.33 210.478 1823.73 221.271 1843.52 247.692C1844.95 249.621 1845.59 250.405 1856.6 251.247C1885.2 253.384 1915.74 258.411 1947.66 294.227C1958.33 306.321 1973.53 312.398 1998.33 314.276C2027.11 316.538 2056.72 321.86 2078.94 344.075C2097.88 362.829 2128.82 382.331 2144.96 387.912C2179.76 400.095 2203.89 391.076 2212.18 376.697C2214 373.667 2215.22 370.333 2215.84 366.806C2216.16 364.976 2216.33 363.121 2216.33 361.262C2216.33 345.575 2205.86 327.064 2186.91 310.431L2184.55 308.472L2173.8 299.668C2151 281.756 2134.56 267.696 2130.6 252.098C2129.55 248.054 2129.1 243.508 2129.1 238.665C2129.1 226.823 2132.34 212.918 2140.43 201.371C2147.64 191.398 2161.54 178.912 2186.91 176.488C2222.17 173.287 2250.48 153.105 2254.62 147.176C2261.25 137.707 2271.79 132.621 2282.96 151.131C2285.32 160.113 2286.5 168.895 2286.5 177.286C2286.5 194.651 2281.66 210.345 2272.18 222.594C2262.11 235.672 2241.79 251.122 2201.96 251.122C2201.11 251.122 2199.94 251.514 2198.96 251.905C2200.93 254.471 2205.86 259.453 2219.17 266.705C2248.38 282.702 2275.55 317.24 2275.79 363.731C2275.79 374.044 2271.5 386.182 2268.03 395.91C2264.41 406.114 2258.66 415.434 2251.18 423.255C2250.16 424.305 2249.11 425.34 2247.99 426.353C2231.53 441.64 2204.12 453.638 2158.45 450.91C2153.64 450.617 2148.84 450.183 2144.06 449.609C2142.88 472.652 2136.56 500.041 2127.66 513.857C2124.96 518.196 2124.42 521.109 2124.42 522.536C2124.42 523.135 2124.48 523.482 2124.48 523.733C2124.76 523.83 2144.75 535.621 2144.75 535.621L2147.97 537.254C2147.97 537.254 2149.85 538.141 2150.09 538.341C2150.38 538.237 2157 537.942 2157 537.942L2158.3 537.757L2158.44 537.742C2170.93 536.552 2190.01 530.438 2198.12 553.089C2200.24 559.099 2201.54 564.333 2202.75 568.968C2205.23 578.445 2207.35 585.483 2215.65 591.877C2215.65 591.877 2219.75 588.358 2224.41 584.219C2228 581.042 2231.53 577.786 2234.99 574.453C2240.77 568.532 2251.46 571.54 2259.17 574.453C2266.97 577.41 2276.63 584.13 2283.45 588.018C2290.32 591.87 2294.1 596.756 2296.08 602.589C2298.14 608.407 2302.91 612.258 2310.18 616.11C2317.21 620.102 2327.27 632.89 2327.27 650.152C2327.27 652.798 2327.57 655.06 2328.32 657.463C2328.83 659.052 2329.52 660.708 2330.47 662.593C2340.29 682.383 2332.41 692.348 2326.73 696.547C2319.08 702.269 2305.6 704.634 2292.93 702.564L2293.03 705.817L2274.53 703.348C2267.36 702.453 2257.9 704.287 2252.25 705.462L2250.92 705.817C2237.75 708.434 2220.53 703.976 2210.85 688.26C2210.49 687.676 2210.14 687.092 2209.81 686.471C2204.87 677.8 2197.18 669.749 2193.42 667.524C2187.98 669.017 2179.4 671.043 2169.19 670.001C2159.71 669.047 2148.78 665.41 2137.66 656.199C2135.82 654.669 2133.96 652.976 2132.12 651.142C2115.78 634.753 2094.23 631.397 2080.68 633.474L2072.6 634.909C2055.92 637.925 2035.09 641.769 2015.84 630.03C2011.05 627.11 2004.15 624.101 1997.38 621.24C1979.91 613.633 1961.85 605.79 1959.39 589.253C1958.97 586.303 1955.78 580.914 1953.16 576.626C1950.85 572.834 1948.34 568.687 1946.39 564.244C1944.52 560.001 1943.18 555.484 1943.05 550.768C1937.33 552.239 1931.42 552.842 1925.52 552.557C1923.44 552.452 1921.36 552.247 1919.3 551.943L1911.71 550.768C1898.93 548.587 1872.16 544.188 1863.64 547.301C1846.67 553.422 1793.26 556.379 1778.61 553.03C1778.61 553.03 1773.22 551.847 1768.14 550.768C1763.27 555.802 1757.83 560.526 1752.1 564.732C1762.82 565.316 1772.25 563.985 1778.72 565.656L1792.18 569.204C1796.47 567.933 1806.98 568.081 1812.94 568.62L1828.7 569.803L1846.68 571.533C1855.35 573.27 1864.54 577.011 1862.97 593.984C1862.36 599.218 1859.43 606.618 1855.03 610.964C1852.6 613.626 1843.21 627.25 1841.15 631.538L1840.47 632.876C1836.81 640.675 1831.39 647.838 1815.59 647.838C1813.58 647.811 1811.58 647.89 1809.58 648.075C1809.1 649.353 1807.81 651.726 1807.81 651.726C1804.25 659.814 1799.11 671.072 1789.29 677.585L1786.67 679.47C1778.79 685.096 1765.66 694.366 1745.56 687.07L1738.64 684.593C1721.12 678.28 1694.63 668.81 1681.25 661.499L1679.38 660.464C1666.92 653.649 1664.16 652.281 1659.64 652.917L1657.12 653.308C1647.57 654.646 1629.57 657.064 1617.12 636.424L1615.98 634.635C1556.95 715.656 1468.23 773.65 1365.83 792.582L1365.37 792.678C1361.89 793.314 1358.37 793.906 1354.85 794.46L1353.54 794.652L1348.73 795.362C1346.86 795.643 1344.98 795.894 1343.09 796.131L1339.66 796.559L1334.24 797.143L1330.5 797.535C1328.06 797.764 1325.6 797.971 1323.14 798.156L1320.81 798.311C1318.56 798.467 1316.33 798.615 1314.06 798.733L1311.59 798.866C1308.97 798.992 1306.37 799.088 1303.74 799.169L1301.07 799.213C1295.45 799.353 1289.83 799.348 1284.22 799.199L1281.71 799.169C1279.19 799.088 1276.68 798.992 1274.17 798.881L1271.09 798.711C1268.97 798.592 1266.85 798.481 1264.73 798.319L1262.03 798.141C1259.52 797.948 1257.01 797.736 1254.5 797.506L1250.79 797.121L1245.88 796.589L1243.13 796.271C1240.55 795.954 1237.98 795.597 1235.41 795.199L1232.3 794.741L1226.8 793.883L1223.96 793.41C1221.75 793.019 1219.54 792.634 1217.34 792.205L1212.57 791.252L1210.13 790.756C1206.87 790.047 1203.59 789.344 1200.35 788.561L1199.49 788.361L1194.4 787.119L1191.78 786.447C1188.75 785.663 1185.72 784.82 1182.71 783.978L1181.63 783.66C1091.84 757.756 1015.11 701.212 963.387 626.104L956.579 636.468C944.248 657.108 926.277 654.683 916.6 653.353L914.087 652.961C909.578 652.325 906.724 653.693 894.386 660.509L892.405 661.544C879.076 668.855 852.685 678.324 835.069 684.638L828.135 687.114C808.05 694.41 794.876 685.126 787.144 679.515L784.431 677.63C774.606 671.124 769.52 659.866 765.913 651.771C765.913 651.771 764.73 649.398 764.153 648.119C762.15 647.935 760.139 647.856 758.128 647.882C742.478 647.882 736.897 640.719 733.297 632.92L732.661 631.582C730.54 627.294 721.262 613.67 718.697 611.009C714.358 606.669 711.275 599.262 710.787 594.028C709.161 577.055 718.482 573.315 727.065 571.577L745.051 569.848L760.841 568.665C766.711 568.125 777.223 567.977 781.511 569.249L794.98 565.7C801.389 564.03 810.91 565.36 821.533 564.776C815.886 560.498 810.543 555.832 805.543 550.812C800.406 551.891 795.068 553.074 795.068 553.074C780.38 556.423 727.065 553.466 710.196 547.345C701.62 544.233 674.874 548.624 662.034 550.812L654.331 551.987C646.471 553.195 638.449 552.795 630.749 550.812C630.342 560.474 625.108 569.249 620.621 576.671C618.012 580.958 614.707 586.348 614.308 589.297C612.001 605.834 593.72 613.677 576.303 621.284C569.539 624.145 562.738 627.154 557.911 630.074C538.809 641.813 517.881 637.969 501.152 634.953L493.049 633.519C479.573 631.442 458.002 634.798 441.628 651.187C416.589 676.166 391.677 670.673 380.329 667.568C376.574 669.794 368.834 677.844 363.933 686.515C354.47 703.695 336.396 708.574 322.779 705.861L321.411 705.507C315.823 704.331 306.486 702.498 299.338 703.392L280.723 705.861L280.923 702.609C268.186 704.679 254.658 702.306 246.984 696.591C241.344 692.392 233.441 682.427 243.421 662.638C245.735 657.892 246.526 654.595 246.526 650.196C246.526 632.927 256.513 620.146 263.521 616.154C270.869 612.302 275.704 608.451 277.67 602.633C279.6 596.8 283.385 591.914 290.26 588.063C297.061 584.174 306.737 577.454 314.492 574.497C322.232 571.585 332.929 568.576 338.762 574.497C344.639 580.219 358.1 591.914 358.1 591.914C370.453 582.378 369.27 571.385 375.672 553.118C383.678 530.468 402.832 536.582 415.266 537.772L416.693 537.971C416.693 537.971 423.398 538.267 423.597 538.371C423.945 538.171 425.822 537.284 425.822 537.284L428.935 535.65C428.935 535.65 449.013 523.859 449.212 523.763C449.301 523.519 449.301 523.164 449.301 522.565C449.301 521.139 448.813 518.226 446.1 513.887C437.17 500.063 430.857 472.681 429.711 449.639C426.488 450.023 423.376 450.341 420.315 450.585C371.687 454.488 342.79 442.187 325.884 426.345V426.345Z" fill="#FFD600"/>
<path d="M445.597 432.806C445.597 432.806 441.546 472.023 459.214 506.582C459.214 506.582 472.306 525.138 458.711 537.054L431.647 552.785C431.647 552.785 428.01 555.491 415.939 554.574C415.939 554.574 399.254 550.442 393.68 557.812C393.68 557.812 388.838 571.984 382.776 583.664C382.776 583.664 370.453 611.977 350.057 621.047C350.057 621.047 333.801 624.773 328.87 638.87C328.87 638.87 323.629 648.762 313.132 649.198C313.132 649.198 305.303 651.682 300.121 669.12C300.121 669.12 297.297 680.401 297.445 689.05C297.445 689.05 310.796 687.298 319.497 690.448C319.497 690.448 340.89 697.633 350.456 680.009C350.456 680.009 368.937 648.362 382.643 653.123C382.643 653.123 410.172 662.334 429.615 642.241C429.615 642.241 456.324 613.063 494.047 619.066C494.047 619.066 536.539 627.671 549.794 617.868C549.794 617.868 576.591 603.86 586.645 600.385C586.645 600.385 598.946 596.77 600.218 583.301C600.218 583.301 607.699 564.354 613.14 558.041L592.87 557.812C592.87 557.812 574.514 588.683 543.325 597.99C543.325 597.99 526.271 604.806 492.036 599.269C492.036 599.269 442.884 588.136 399.712 634.76C399.712 634.76 393.813 643.284 385.393 639.876C385.393 639.876 409.248 599.195 461.624 589.555C461.624 589.555 478.767 585.911 493.064 588.232C493.064 588.232 563.61 590.302 596.322 520.85C596.322 520.85 592.781 461.636 608.401 447.613C608.401 447.613 614.433 445.765 613.228 457.216C613.228 457.216 602.495 519.246 622.654 531.258C622.654 531.258 634.356 540.455 656.009 537.054C656.009 537.054 688.831 529.211 715.51 533.779C715.51 533.779 756.539 543.515 791.793 539.013C791.793 539.013 782.641 524.997 784.438 508.238C784.438 508.238 789.487 496.24 795.275 503.958C795.275 503.958 808.84 548.771 845.913 562.218C845.913 562.218 879.024 574.275 878.485 616.272C878.485 616.272 873.413 622.03 829.51 637.629C829.51 637.629 813.106 642.811 807.82 630.554C807.82 630.554 786.648 585.238 768.219 586.635L733.615 589.444C733.615 589.444 721.809 592.468 730.502 601.93C730.502 601.93 742.352 617.684 747.194 627.087C747.194 627.087 748.606 635.122 759.74 633.415C759.74 633.415 775.182 625.764 783.891 654.491C783.891 654.491 791.86 668.854 805.351 673.445C805.351 673.445 817.97 677.659 829.813 671.013C829.813 671.013 886.964 650.033 896.914 642.596C896.914 642.596 909.274 635.677 919.077 639.004C919.077 639.004 936.22 643.092 943.279 629.563L960.992 602.16C960.992 602.16 964.88 595.41 964.341 586.931C964.341 586.931 965.945 578.533 958.863 569.995C958.863 569.995 952.173 562.92 951.115 557.797L938.489 528.124C938.489 528.124 933.374 520.199 927.755 516.939L910.9 518.174C910.9 518.174 922.499 547.818 930.993 559.897C930.993 559.897 942.488 577.476 941.904 588.653C941.904 588.653 941.143 596.489 938.053 599.757C938.053 599.757 934.165 605.981 932.597 609.005C932.597 609.005 927.489 620.094 923.342 622.555C923.342 622.555 916.171 626.799 914.427 626.969C914.427 626.969 911.307 627.833 913.621 622.245C913.621 622.245 923.068 602.366 922.447 591.736C922.447 591.736 924.281 580.662 916.445 574.179C916.445 574.179 898.082 545.193 895.45 536.529C895.45 536.529 889.691 524.938 886.624 522.949C886.624 522.949 880.207 514.515 890.564 510.567C890.564 510.567 916.363 504.742 920.984 501.578C920.984 501.578 933.388 497.822 941.446 471.986C941.446 471.986 952.542 441.854 952.38 423.255C952.38 423.255 974.128 465.185 939.443 507.824C939.443 507.824 966.891 515.919 978.246 507.824C978.246 507.824 1012.44 502.827 1019.04 501.009C1019.04 501.009 1027.63 498.931 1022.73 505.03C1022.73 505.03 1012.41 519.697 1011.54 529.307C1011.54 529.307 1010.88 536.958 1004.61 541.438C1004.61 541.438 985.173 555.047 983.465 568.08C983.465 568.08 979.31 580.625 987.893 577.624C987.893 577.624 999.529 572.235 1003.64 577.661C1003.64 577.661 1004.84 578.23 1000.36 583.264C1000.36 583.264 988.684 593.422 987.812 607.053C987.812 607.053 989.97 622.784 994.095 627.841C994.095 627.841 999.351 635.13 1007.66 632.816C1007.66 632.816 1009.86 631.034 1013.84 632.232C1013.84 632.232 1017.95 632.217 1028.68 628.506C1028.68 628.506 1044.96 624.034 1050.4 622.112C1050.4 622.112 1071.11 614.705 1081.33 615.222C1081.33 615.222 1087.97 614.49 1096.44 616.183C1096.44 616.183 1122.35 619.125 1139.61 600.045C1139.61 600.045 1152.74 589.629 1157.2 599.742C1157.2 599.742 1188.72 642.027 1239.72 630.887C1239.72 630.887 1199.14 614.194 1188.61 591.463C1188.61 591.463 1187.21 572.161 1165.95 545.356C1165.95 545.356 1159.45 536.463 1165.72 534.149C1165.72 534.149 1169.35 531.436 1177.27 539.383C1177.27 539.383 1197.46 558.758 1204.76 576.493C1204.76 576.493 1229.84 614.394 1265.99 601.657C1265.99 601.657 1237.61 590.709 1224.27 570.291C1224.27 570.291 1216.03 542.658 1188.32 522.099C1188.32 522.099 1187.24 491.044 1174.32 473.59C1174.32 473.59 1167.73 444.427 1165.96 437.611C1165.96 437.611 1158.98 411.996 1159.03 404.921C1159.03 404.921 1161.33 371.463 1139.76 345.419C1139.76 345.419 1125.31 317.557 1102.8 298.145C1102.8 298.145 1085.7 277.01 1072.97 264.065C1072.97 264.065 1056.24 244.446 1019.75 218.846C1019.75 218.846 1003.22 206.833 991.123 193.918C991.123 193.918 926.757 147.59 880.259 184.752C880.259 184.752 848.146 206.597 821.326 213.361C821.326 213.361 766.208 219.777 742.707 258.033C742.707 258.033 740.697 265.1 718.482 267.791C718.482 267.791 669.685 261.899 633.757 309.891C633.757 309.891 617.065 326.184 584.021 330.147C584.021 330.147 530.13 324.632 495.045 365.948C495.045 365.948 406.513 443.177 353.724 393.093C353.724 393.093 326.372 367.198 357.642 320.307C357.642 320.307 377.476 296.371 411.311 271.362C411.311 271.362 438.759 252.023 426.177 221.958C426.177 221.958 419.531 192.906 378.392 192.137C378.392 192.137 326.771 182.164 305.894 156.099C305.894 156.099 282.586 238.192 374.068 236.824C374.068 236.824 397.908 240.35 389.584 259.275C389.584 259.275 377.897 275.465 362.21 281.356C362.21 281.356 334.614 293.428 322.143 333.614C322.143 333.614 294.273 403.96 362.269 431.113C388.439 440.154 418.666 437.493 445.597 432.806V432.806ZM314.684 598.574C318.373 595.492 323.777 593.754 328.574 594.878C339.397 597.207 332.847 606.58 332.847 606.58C328.464 614.778 314.159 628.61 314.159 628.61C301.437 638.139 291.361 626.791 291.361 626.791C281.935 617.499 294.2 613.004 294.2 613.004C301.333 610.106 314.684 598.574 314.684 598.574V598.574ZM287.406 642.544C287.406 642.544 291.361 645.465 289.247 651.231C289.247 651.231 279.148 678.871 279.622 688.149C279.622 688.149 257.274 692.141 254.177 681.111C254.177 681.111 253.578 676.853 257.222 670.68C257.222 670.68 261.015 664.921 261.998 654.387C261.998 654.387 261.665 627.878 278.838 634.901C282.246 636.808 284.937 639.58 287.406 642.544V642.544ZM1075.07 586.451C1071.14 586.354 1070.14 584.913 1070.61 580.581C1073.25 568.539 1082.91 563.342 1082.91 563.342C1101.02 552.519 1103.22 563.357 1103.22 563.357C1106.54 582.688 1091.26 585.12 1091.26 585.12C1088.21 586.17 1075.07 586.451 1075.07 586.451V586.451ZM1129.71 500.121C1130.04 491.051 1130.81 470.892 1121.59 463.691C1118.19 460.986 1104.74 446.253 1104.74 446.253C1102.69 442.682 1101.12 442.46 1101.12 442.46C1098.34 442.194 1094.77 448.64 1094.77 448.64C1085.19 467.129 1075.63 464.874 1075.63 464.874C1075.55 461.503 1077.8 457.74 1077.8 457.74C1082.42 448.759 1087.01 439.755 1091.54 430.728C1092.94 427.52 1094.23 423.247 1094.23 423.247C1103.47 408.913 1112.19 419.825 1112.19 419.825C1116.08 427.417 1136.81 452.152 1136.81 452.152C1141.41 457.622 1141.86 463.499 1141.86 463.499C1146.66 497.379 1129.71 500.121 1129.71 500.121V500.121ZM938.726 295.602C935.894 290.508 937.062 285.311 939.908 280.358C946.325 270.526 952.32 281.253 952.32 281.253C974.476 312.139 958.116 358.378 958.116 358.378C955.839 315.82 938.726 295.602 938.726 295.602V295.602ZM2128.27 432.806C2128.27 432.806 2132.32 472.023 2114.65 506.582C2114.65 506.582 2101.56 525.138 2115.15 537.054L2142.23 552.785C2142.23 552.785 2145.85 555.491 2157.93 554.574C2157.93 554.574 2174.61 550.442 2180.18 557.812C2180.18 557.812 2185.03 571.984 2191.08 583.664C2191.08 583.664 2203.43 611.977 2223.82 621.047C2223.82 621.047 2240.07 624.773 2244.99 638.87C2244.99 638.87 2250.24 648.762 2260.73 649.198C2260.73 649.198 2268.57 651.682 2273.74 669.12C2273.74 669.12 2276.58 680.401 2276.44 689.05C2276.44 689.05 2263.08 687.298 2254.37 690.448C2254.37 690.448 2232.98 697.633 2223.42 680.009C2223.42 680.009 2204.94 648.362 2191.23 653.123C2191.23 653.123 2163.71 662.334 2144.26 642.241C2144.26 642.241 2117.56 613.063 2079.83 619.066C2079.83 619.066 2037.35 627.671 2024.09 617.868C2024.09 617.868 1997.29 603.86 1987.23 600.385C1987.23 600.385 1974.93 596.77 1973.67 583.301C1973.67 583.301 1966.18 564.354 1960.74 558.041L1981 557.812C1981 557.812 1999.35 588.683 2030.54 597.99C2030.54 597.99 2047.61 604.806 2081.83 599.269C2081.83 599.269 2130.99 588.136 2174.16 634.76C2174.16 634.76 2180.07 643.284 2188.47 639.876C2188.47 639.876 2164.63 599.195 2112.25 589.555C2112.25 589.555 2095.11 585.911 2080.8 588.232C2080.8 588.232 2010.25 590.302 1977.53 520.85C1977.53 520.85 1981.08 461.636 1965.46 447.613C1965.46 447.613 1959.45 445.765 1960.63 457.216C1960.63 457.216 1971.36 519.246 1951.21 531.258C1951.21 531.258 1939.5 540.455 1917.85 537.054C1917.85 537.054 1885.03 529.211 1858.36 533.779C1858.36 533.779 1817.32 543.515 1782.06 539.013C1782.06 539.013 1791.22 524.997 1789.43 508.238C1789.43 508.238 1784.37 496.24 1778.58 503.958C1778.58 503.958 1765.02 548.771 1727.94 562.218C1727.94 562.218 1694.83 574.275 1695.37 616.272C1695.37 616.272 1700.45 622.03 1744.36 637.629C1744.36 637.629 1760.77 642.811 1766.06 630.554C1766.06 630.554 1787.21 585.238 1805.65 586.635L1840.27 589.444C1840.27 589.444 1852.06 592.468 1843.36 601.93C1843.36 601.93 1831.53 617.684 1826.67 627.087C1826.67 627.087 1825.27 635.122 1814.13 633.415C1814.13 633.415 1798.69 625.764 1789.97 654.491C1789.97 654.491 1782.01 668.854 1768.52 673.445C1768.52 673.445 1755.9 677.659 1744.06 671.013C1744.06 671.013 1686.91 650.033 1676.97 642.596C1676.97 642.596 1664.6 635.677 1654.8 639.004C1654.8 639.004 1637.68 643.092 1630.62 629.563L1612.9 602.16C1612.9 602.16 1609 595.41 1609.55 586.931C1609.55 586.931 1607.94 578.533 1615.02 569.995C1615.02 569.995 1621.72 562.92 1622.77 557.797L1635.41 528.124C1635.41 528.124 1640.52 520.199 1646.13 516.939L1663 518.174C1663 518.174 1651.39 547.818 1642.89 559.897C1642.89 559.897 1631.39 577.476 1631.98 588.653C1631.98 588.653 1632.74 596.489 1635.83 599.757C1635.83 599.757 1639.72 605.981 1641.29 609.005C1641.29 609.005 1646.38 620.094 1650.54 622.555C1650.54 622.555 1657.7 626.799 1659.45 626.969C1659.45 626.969 1662.58 627.833 1660.24 622.245C1660.24 622.245 1650.82 602.366 1651.42 591.736C1651.42 591.736 1649.6 580.662 1657.42 574.179C1657.42 574.179 1675.8 545.193 1678.44 536.529C1678.44 536.529 1684.18 524.938 1687.26 522.949C1687.26 522.949 1693.67 514.515 1683.32 510.567C1683.32 510.567 1657.52 504.742 1652.9 501.578C1652.9 501.578 1640.5 497.822 1632.43 471.986C1632.43 471.986 1621.35 441.854 1621.5 423.255C1621.5 423.255 1599.75 465.185 1634.44 507.824C1634.44 507.824 1607 515.919 1595.64 507.824C1595.64 507.824 1561.46 502.827 1554.84 501.009C1554.84 501.009 1546.26 498.931 1551.15 505.03C1551.15 505.03 1561.46 519.697 1562.35 529.307C1562.35 529.307 1563 536.958 1569.28 541.438C1569.28 541.438 1588.71 555.047 1590.41 568.08C1590.41 568.08 1594.57 580.625 1585.98 577.624C1585.98 577.624 1574.35 572.235 1570.24 577.661C1570.24 577.661 1569.04 578.23 1573.52 583.264C1573.52 583.264 1585.2 593.422 1586.06 607.053C1586.06 607.053 1583.9 622.784 1579.77 627.841C1579.77 627.841 1574.52 635.13 1566.21 632.816C1566.21 632.816 1564.02 631.034 1560.02 632.232C1560.02 632.232 1555.91 632.217 1545.18 628.506C1545.18 628.506 1528.91 624.034 1523.47 622.112C1523.47 622.112 1502.76 614.705 1492.53 615.222C1492.53 615.222 1485.89 614.49 1477.41 616.183C1477.41 616.183 1451.5 619.125 1434.24 600.045C1434.24 600.045 1421.11 589.629 1416.66 599.742C1416.66 599.742 1385.14 642.027 1334.13 630.887C1334.13 630.887 1374.73 614.194 1385.25 591.463C1385.25 591.463 1386.64 572.161 1407.9 545.356C1407.9 545.356 1414.39 536.463 1408.12 534.149C1408.12 534.149 1404.5 531.436 1396.58 539.383C1396.58 539.383 1376.4 558.758 1369.1 576.493C1369.1 576.493 1344 614.394 1307.87 601.657C1307.87 601.657 1336.23 590.709 1349.57 570.291C1349.57 570.291 1357.81 542.658 1385.54 522.099C1385.54 522.099 1386.62 491.044 1399.55 473.59C1399.55 473.59 1406.14 444.427 1407.9 437.611C1407.9 437.611 1414.87 411.996 1414.82 404.921C1414.82 404.921 1412.52 371.463 1434.09 345.419C1434.09 345.419 1448.54 317.557 1471.07 298.145C1471.07 298.145 1488.17 277.01 1500.89 264.065C1500.89 264.065 1517.63 244.446 1554.12 218.846C1554.12 218.846 1570.63 206.833 1582.73 193.918C1582.73 193.918 1647.09 147.59 1693.6 184.752C1693.6 184.752 1725.71 206.597 1752.55 213.361C1752.55 213.361 1807.65 219.777 1831.14 258.033C1831.14 258.033 1833.15 265.1 1855.36 267.791C1855.36 267.791 1904.16 261.899 1940.09 309.891C1940.09 309.891 1956.79 326.184 1989.84 330.147C1989.84 330.147 2043.7 324.632 2078.78 365.948C2078.78 365.948 2167.32 443.177 2220.12 393.093C2220.12 393.093 2247.46 367.198 2216.19 320.307C2216.19 320.307 2196.37 296.371 2162.54 271.362C2162.54 271.362 2135.07 252.023 2147.67 221.958C2147.67 221.958 2154.31 192.906 2195.45 192.137C2195.45 192.137 2247.07 182.164 2267.94 156.099C2267.94 156.099 2291.26 238.192 2199.77 236.824C2199.77 236.824 2175.92 240.35 2184.25 259.275C2184.25 259.275 2195.94 275.465 2211.63 281.356C2211.63 281.356 2239.22 293.428 2251.7 333.614C2251.7 333.614 2279.58 403.96 2211.55 431.113C2185.42 440.154 2155.2 437.493 2128.27 432.806V432.806ZM2259.19 598.574C2255.49 595.492 2250.09 593.754 2245.31 594.878C2234.47 597.207 2241.03 606.58 2241.03 606.58C2245.42 614.778 2259.72 628.61 2259.72 628.61C2272.46 638.139 2282.52 626.791 2282.52 626.791C2291.93 617.499 2279.66 613.004 2279.66 613.004C2272.54 610.106 2259.19 598.574 2259.19 598.574V598.574ZM2286.45 642.544C2286.45 642.544 2282.52 645.465 2284.61 651.231C2284.61 651.231 2294.71 678.871 2294.24 688.149C2294.24 688.149 2316.61 692.141 2319.68 681.111C2319.68 681.111 2320.28 676.853 2316.64 670.68C2316.64 670.68 2312.85 664.921 2311.87 654.387C2311.87 654.387 2312.21 627.878 2295.03 634.901C2291.62 636.808 2288.93 639.58 2286.45 642.544V642.544ZM1498.79 586.451C1502.73 586.354 1503.74 584.913 1503.25 580.581C1500.6 568.539 1490.96 563.342 1490.96 563.342C1472.85 552.519 1470.64 563.357 1470.64 563.357C1467.34 582.688 1482.61 585.12 1482.61 585.12C1485.66 586.17 1498.79 586.451 1498.79 586.451V586.451ZM1444.16 500.121C1443.82 491.051 1443.05 470.892 1452.28 463.691C1455.7 460.986 1469.13 446.253 1469.13 446.253C1471.18 442.682 1472.76 442.46 1472.76 442.46C1475.51 442.194 1479.11 448.64 1479.11 448.64C1488.68 467.129 1498.25 464.874 1498.25 464.874C1498.33 461.503 1496.06 457.74 1496.06 457.74C1491.43 448.759 1486.86 439.755 1482.32 430.728C1481.31 428.279 1480.41 425.782 1479.64 423.247C1470.39 408.913 1461.68 419.825 1461.68 419.825C1457.79 427.417 1437.07 452.152 1437.07 452.152C1434.32 455.369 1432.57 459.309 1432 463.499C1427.22 497.379 1444.16 500.121 1444.16 500.121V500.121ZM1635.14 295.602C1637.97 290.508 1636.8 285.311 1633.96 280.358C1627.54 270.526 1621.56 281.253 1621.56 281.253C1599.4 312.139 1615.76 358.378 1615.76 358.378C1618.02 315.82 1635.14 295.602 1635.14 295.602Z" fill="white"/>
<path d="M0.408691 935.641V1502.21H114.733V1043.77H168.594C168.594 1043.77 252.676 1039.99 252.676 1116.53C252.676 1193.07 178.027 1191.16 178.027 1191.16H150.623V1321.57L264.97 1502.22H399.121L239.451 1270.56C239.451 1270.56 370.786 1259.22 370.786 1116.54C370.786 973.882 271.571 935.663 139.306 935.663L0.408691 935.641ZM1671.89 1200.65C1671.89 1200.65 1721.95 1161.7 1721.95 1087.9C1721.95 1014.07 1668.32 947.506 1554.14 947.506H1362.91V1502.21H1598.45C1598.45 1502.21 1767.27 1500.3 1767.27 1347.74C1767.28 1259.18 1732.9 1225.26 1671.89 1200.65ZM1579.76 1405.67H1477.25V1044.23H1532.04C1532.04 1044.23 1606.49 1038.64 1606.49 1103.6C1606.49 1168.56 1547.27 1162.83 1547.27 1162.83H1513.15V1260.2H1579.73C1597.19 1260.2 1652.79 1268.66 1652.79 1332.65C1652.79 1396.63 1579.76 1405.67 1579.76 1405.67ZM2392.81 924.5H2499.59V1502.21H2392.81V924.5ZM2209.05 924.5H2317.23V1502.21H2209.05V924.5ZM1799.45 1163.79H1909.04V1357.47C1909.04 1357.47 1912.85 1422.69 1974.25 1422.69C2035.64 1422.69 2034.73 1357.47 2034.73 1357.47V1164.7H2145.26V1364.11C2145.26 1364.11 2159.44 1520.01 1977.07 1520.01C1794.72 1520.01 1799.45 1383 1799.45 1358.44V1163.79V1163.79ZM1072.85 924.5V1186.47C1072.85 1186.47 1019.94 1145.85 959.432 1145.85C898.984 1145.85 796.939 1188.37 796.939 1322.53C796.939 1456.69 883.874 1507.74 958.508 1507.74C1033.16 1507.74 1074.74 1458.6 1074.74 1458.6V1502.23H1182.43V924.508H1072.85V924.5V924.5ZM989.689 1413.22C984.012 1413.22 913.148 1414.17 913.148 1327.25C913.148 1240.31 990.621 1237.47 990.621 1237.47C990.621 1237.47 1077.56 1240.31 1077.56 1325.35C1077.56 1410.39 995.352 1413.22 989.689 1413.22ZM581.5 1145.84C764.804 1145.84 757.241 1324.43 757.241 1324.43V1352.75H508.751C508.751 1393.37 542.756 1428.34 589.063 1428.34C635.354 1428.34 658.98 1383.93 658.98 1383.93L746.84 1427.39C706.218 1488.83 651.418 1513.37 590.009 1513.37C399.136 1513.37 395.358 1354.65 395.358 1334.81C395.358 1314.96 398.212 1145.84 581.5 1145.84V1145.84ZM510.629 1287.54H646.709C646.709 1287.54 641.039 1223.32 579.622 1223.32C518.206 1223.31 510.629 1287.54 510.629 1287.54Z" fill="white"/>
</svg>
