<svg width="2091" height="1420" viewBox="0 0 2091 1420" fill="none" xmlns="http://www.w3.org/2000/svg">
<path fill-rule="evenodd" clip-rule="evenodd" d="M372.117 828.362C372.117 828.362 373.077 935.752 366.981 1039.56C380.841 1038.64 394.675 1037.36 408.471 1035.75C467.73 1029.02 607.778 843.173 590.281 813.55C575.055 787.78 457.017 797.662 371.572 817.506C372.247 820.775 372.454 824.38 372.117 828.362V828.362ZM1849.43 439.178C1858.75 443.484 1873.67 409.542 1908.67 379.919C1943.68 350.296 2015.06 319.325 2031.22 354.33C2047.38 389.335 2021.79 414.925 1988.14 498.424C1954.48 581.923 1947.74 658.679 1971.98 696.395C1996.22 734.098 2027.18 735.447 2036.59 660.027C2046.05 584.621 2044.7 550.952 2029.87 538.825C2015.05 526.711 2019.08 509.202 2035.24 510.551C2051.4 511.9 2101.23 548.267 2089.12 625.022C2076.98 701.79 2050.05 812.228 1980.04 777.196C1910.01 742.178 1884.42 643.867 1903.26 577.877C1922.13 511.9 1943.69 476.868 1928.88 470.137C1914.07 463.406 1875 498.411 1849.41 552.288C1823.82 606.151 1813.03 634.425 1819.78 665.397C1826.52 696.382 1830.54 711.193 1799.58 708.508C1768.6 705.798 1776.68 661.35 1784.76 599.407C1792.84 537.476 1796.9 472.822 1798.23 414.912C1799.57 357.002 1806.31 258.691 1817.08 223.686C1827.84 188.68 1833.26 161.742 1829.22 142.884C1825.17 124.039 1815.74 101.134 1845.38 110.563C1874.99 120.005 1905.97 198.109 1905.97 214.27C1905.97 230.43 1891.15 286.991 1872.3 340.854C1853.48 394.718 1831.93 431.098 1849.43 439.178V439.178ZM1041.89 509.928C1083.7 507.853 1100.45 500.201 1108.76 452.641C1118.19 398.777 1112.81 355.679 1079.15 378.57C1060.86 390.996 1047.76 452.978 1041.53 509.643L1041.89 509.928V509.928ZM1592.21 231.104C1592.21 261.22 1567.49 285.655 1537.01 285.655C1506.5 285.655 1481.78 261.233 1481.78 231.104C1481.78 200.976 1506.5 176.566 1537.01 176.566C1567.49 176.566 1592.21 200.976 1592.21 231.104ZM1354.07 410.826L1353.41 407.454C1344.29 389.063 1330.41 372.669 1310.75 378.558C1270.38 390.684 1217.84 524 1235.35 579.226C1252.88 634.425 1281.14 625.009 1310.75 585.957C1328.79 562.183 1342.83 485.13 1354.07 410.826V410.826ZM1631.2 537.593L1631.27 537.969C1635.35 538.825 1639.81 541.237 1644.72 545.556C1666.28 564.414 1646.08 577.877 1643.37 596.735C1640.69 615.593 1656.85 655.981 1675.7 647.914C1694.57 639.833 1717.47 595.386 1705.33 554.985C1693.19 514.584 1656.85 463.406 1656.85 463.406C1656.85 463.406 1646.47 497.672 1631.2 537.593V537.593ZM1593.83 620.885L1593.38 620.768C1584.02 636.941 1574.48 649.755 1565.28 655.981C1523.53 684.268 1495.25 689.65 1479.09 634.438C1479.09 634.438 1375.41 711.206 1344.42 619.627C1344.42 619.627 1295.94 681.557 1248.82 674.839C1201.68 668.095 1185.52 654.645 1168.02 616.929C1168.02 616.929 1138.38 690.999 1064.31 676.175C990.256 661.35 988.92 630.391 991.605 592.675C991.605 592.675 961.969 596.722 955.238 588.642C955.238 588.642 935.044 623.66 894.643 588.642C894.643 588.642 848.847 686.94 805.761 676.175C762.663 665.397 745.153 645.203 751.898 571.133L738.422 569.784C738.422 569.784 669.747 685.604 646.842 673.49C623.951 661.363 597.013 643.867 601.059 572.481C605.106 501.109 610.488 367.793 606.442 338.157C602.408 308.534 580.865 296.407 587.597 278.911C594.328 261.402 622.615 276.226 636.078 289.689C649.553 303.151 685.907 327.392 673.794 371.839C661.667 416.274 664.352 431.085 660.318 499.773C656.284 568.448 648.217 589.978 658.982 594.037C670.409 598.33 696.698 548.241 718.241 487.633C739.771 427.039 747.864 332.761 766.722 324.694C785.567 316.614 832.699 373.175 835.397 381.255C838.095 389.348 803.076 433.77 800.392 511.887C797.694 589.991 804.438 619.614 823.283 615.58C842.141 611.533 860.999 573.843 860.999 573.843C860.999 573.843 851.57 410.891 869.079 371.839C886.576 332.774 906.783 284.293 922.943 285.642C939.103 286.991 957.961 291.025 951.217 344.901C944.499 398.777 917.56 464.755 914.863 502.471C912.165 540.174 917.56 583.272 940.452 556.334C963.344 529.396 990.269 466.103 990.269 466.103C990.269 466.103 1013.16 338.17 1060.29 316.627C1107.44 295.084 1168.06 316.627 1166.68 398.777C1165.33 480.928 1123.6 557.683 1108.77 563.065C1098.67 566.749 1066.54 572.948 1037.75 574.349L1037.44 574.634C1037.4 592.416 1038.7 605.178 1041.46 608.862C1053.59 625.022 1100.73 654.645 1161.33 572.494C1161.33 572.494 1186.92 448.607 1215.18 397.416C1242.44 348.079 1291 281.232 1363.21 341.671L1364.28 341.01C1367.31 319.83 1370.13 300.752 1372.73 285.642C1386.21 207.551 1387.56 95.7648 1406.4 84.9869C1425.25 74.2091 1454.88 111.925 1457.57 119.992C1460.25 128.085 1450.83 148.279 1436.04 239.846C1421.22 331.438 1374.08 606.164 1401.01 608.849C1427.96 611.533 1453.55 594.024 1469.71 541.51C1469.71 541.51 1467 417.61 1481.82 374.524C1496.65 331.438 1499.33 300.454 1522.22 330.09C1545.13 359.712 1562.62 385.302 1559.91 397.416C1557.23 409.542 1510.08 549.59 1510.08 549.59C1510.08 549.59 1502.03 629.043 1528.96 620.988C1555.88 612.895 1580.12 565.763 1611.08 449.943C1642.06 334.11 1654.19 257.355 1670.35 257.355C1686.51 257.355 1724.2 273.515 1725.55 300.441C1726.9 327.379 1693.23 389.335 1704.02 413.576C1714.79 437.816 1772.7 532.081 1761.91 600.769C1751.14 669.443 1682.47 735.434 1636.67 695.033C1614.75 675.598 1599.72 649.582 1593.83 620.885V620.885ZM636.882 1242.95V1243.01C684.909 1157.91 672.626 1036.68 512.164 1050.57C512.164 1050.57 634.716 954.96 661.641 907.815C688.566 860.683 700.693 773.137 597 761.023C493.306 748.909 256.284 773.15 164.704 817.597C73.1249 862.031 34.0859 938.799 98.7273 945.518C163.369 952.262 241.485 950.913 229.359 926.686C229.359 926.686 199.723 921.29 207.803 893.003C214.638 869.113 241.615 856.766 300.109 838.102C297.852 892.069 296.802 1025.93 298.047 1066.73C299.395 1111.18 288.618 1151.57 271.108 1198.7C268.011 1206.76 265.31 1214.96 263.015 1223.28C179.516 1223.99 111.827 1227.83 109.505 1292.98C106.807 1368.4 174.146 1420.92 292.651 1419.58C398.718 1418.36 534.978 1358.89 604.898 1285.6L605.261 1285.4C718.008 1309.98 880.7 1370.3 1025.25 1391.29C1192.23 1415.53 1295.94 1430.35 1367.33 1392.64C1438.66 1354.92 1515.44 1276.8 1496.6 1266.04C1477.75 1255.26 1475.04 1299.72 1406.36 1317.21C1337.69 1334.73 1270.36 1373.77 1005.05 1318.55C791.987 1274.21 711.821 1255.04 636.882 1242.95ZM535.588 1230.13L536.716 1229.71C596.883 1163.42 564.056 1136.46 526.976 1123.29C495.836 1112.23 404.775 1120.67 360.496 1125.68C358.123 1162.15 357.72 1194.85 356.852 1222.53C418.704 1222.46 473.774 1224.23 535.588 1230.13V1230.13ZM494.201 1270.55L494.188 1270.22C406.759 1347.13 343.739 1383.25 248.217 1360.32C147.208 1336.08 167.415 1295.68 182.227 1286.25C192.732 1279.55 226.311 1273.54 264.17 1270.13C265.441 1276.1 266.893 1283.07 268.411 1291.64C276.491 1337.41 300.731 1332.03 333.052 1315.87C345.866 1309.46 351.495 1292.21 354.258 1266.43C391.987 1265.87 438.457 1266.2 494.201 1270.55V1270.55ZM751.171 1045.53L750.912 1045.35C757.202 1045.26 765.451 1046.1 776.112 1047.86C816.539 1054.59 843.451 1034.39 851.518 975.141C859.612 915.895 864.994 880.876 844.787 879.541C828.795 878.464 769.692 950.096 751.171 1045.53V1045.53ZM1112.33 856.506L1112.41 856.467C1101.77 848.761 1089.43 843.742 1076.44 841.837C1037.38 836.455 992.941 848.569 948.493 960.342C929.155 1008.98 915.174 1056.32 910.323 1097.21C890.661 1104.73 865.668 1154.95 854.242 1166.39C840.766 1179.86 757.28 1256.61 746.502 1124.64C745.784 1115.72 745.503 1106.77 745.659 1097.82L745.452 1098.09C756.333 1102.56 772.948 1103.98 812.505 1103.1C873.113 1101.75 869.066 1092.34 897.341 1006.14C925.628 919.954 895.992 839.153 859.637 825.677C823.27 812.215 772.091 831.073 726.308 906.479C680.525 981.885 671.096 1128.68 703.417 1196.02C735.737 1263.34 811.156 1235.07 858.289 1201.41C879.027 1186.59 897.405 1167.09 909.779 1148.84C913.397 1177.24 924.655 1199.39 945.809 1212.18C1003.71 1247.18 1056.23 1205.43 1068.36 1171.78C1068.36 1171.78 1088.55 1181.22 1103.37 1201.41C1118.19 1221.61 1168.01 1245.85 1205.71 1179.86C1205.71 1179.86 1264.96 1263.35 1324.24 1163.7C1324.24 1163.7 1388.86 1274.13 1469.67 1121.95C1469.67 1121.95 1465.64 1220.26 1534.31 1209.48C1602.99 1198.7 1620.5 1136.76 1620.5 1136.76C1620.5 1136.76 1623.21 1198.7 1668.98 1204.1C1714.77 1209.48 1732.28 1185.24 1732.28 1185.24C1732.28 1185.24 1753.81 1243.13 1728.24 1287.6C1702.65 1332.04 1675.7 1357.62 1647.43 1322.6C1619.16 1287.6 1629.92 1243.16 1629.92 1232.38C1629.92 1221.61 1576.05 1210.84 1574.73 1225.65C1573.38 1240.46 1581.44 1251.23 1588.18 1270.07C1594.92 1288.93 1580.12 1341.46 1621.84 1367.05C1663.59 1392.65 1737.69 1403.42 1757.87 1371.09C1778.07 1338.79 1806.33 1311.85 1807.7 1127.34C1809.05 942.846 1837.34 910.512 1845.42 891.667C1853.5 872.822 1861.55 867.427 1841.37 859.36C1821.15 851.279 1795.6 843.199 1787.49 870.125C1779.41 897.063 1768.65 981.898 1752.49 1045.2C1736.33 1108.48 1695.95 1143.5 1682.48 1131.39C1669 1119.27 1687.85 1015.57 1699.99 973.831C1712.1 932.081 1729.62 853.977 1704.03 843.212C1678.42 832.434 1663.61 844.561 1658.24 882.264C1652.84 919.967 1586.85 1138.14 1551.85 1142.17C1516.84 1146.21 1518.18 1120.64 1522.21 1068.11C1524.07 1044.18 1529.53 995.374 1536.09 945.375C1570.74 947.502 1605.65 949.24 1611.09 946.906C1620.52 942.859 1619.17 914.585 1625.92 898.425C1632.66 882.264 1636.68 856.675 1621.87 851.292C1609.64 846.831 1575.23 848.841 1549.98 850.424C1553.6 828.92 1557.05 811.449 1559.94 801.463C1572.05 759.713 1585.53 743.553 1561.29 723.372C1537.05 703.165 1503.38 701.829 1499.36 747.586C1496.27 782.423 1501.77 807.909 1499.84 847.752C1487.7 845.677 1476.64 843.848 1468.37 845.923C1455.43 849.152 1458.92 874.197 1454.9 895.753C1450.86 917.296 1440.07 940.187 1472.43 941.523C1475.62 941.666 1479.45 941.847 1483.78 942.094C1461.99 1025.2 1418.88 1146.8 1398.34 1138.14C1372.75 1127.37 1402.38 1016.93 1415.87 971.159C1429.32 925.363 1430.7 879.579 1415.87 864.768C1401.05 849.957 1359.31 823.018 1362 860.721C1364.68 898.425 1376.82 954.999 1337.75 1046.57C1298.69 1138.13 1256.95 1173.15 1254.26 1134.1C1251.57 1095.03 1269.08 1033.09 1287.92 971.159C1306.77 909.215 1309.48 870.151 1298.69 859.386C1287.92 848.608 1242.15 817.636 1234.07 837.843C1225.99 858.037 1232.73 879.593 1234.07 925.363C1235.42 971.159 1209.81 1091 1173.45 1126.02C1137.07 1161.04 1104.78 1175.85 1125 1108.51C1145.19 1041.2 1189.61 940.174 1190.96 898.438C1192.31 856.701 1195.01 852.654 1164.04 844.574C1135.31 837.052 1112.41 826.118 1112.33 856.506V856.506ZM1104.07 934.442L1103.91 932.665C1034.09 837.7 1010.97 965.271 991.566 1019.6C971.372 1076.15 949.816 1117.9 978.103 1152.92C1006.38 1187.92 1034.66 1148.87 1060.25 1078.83C1075.96 1035.92 1093.64 980.342 1104.07 934.442ZM129.712 459.359C129.712 459.359 66.4196 549.577 77.1975 560.368C87.9753 571.146 202.433 643.867 289.966 643.867C377.512 643.867 443.49 600.769 417.9 549.59C392.311 498.411 408.471 490.344 246.868 423.005C85.2647 355.666 -21.1134 289.676 32.7501 200.794C86.6135 111.912 232.069 9.56777 513.526 1.47464C794.983 -6.60552 959.284 32.4594 983.525 106.517C1007.77 180.587 982.176 253.309 807.097 262.738C632.031 272.167 533.72 247.926 528.338 163.078C528.338 163.078 520.258 148.266 551.242 125.375C582.201 102.47 591.63 94.403 603.744 107.866C615.871 121.328 583.55 149.602 603.744 168.46C623.951 187.305 621.266 226.357 762.662 216.941C904.072 207.512 928.299 168.46 914.837 134.791C901.361 101.121 784.205 55.3381 629.333 55.3381C474.461 55.3381 310.173 75.5449 210.514 124.013C110.841 172.494 74.4998 241.182 176.844 295.045C279.189 348.909 454.267 373.149 509.48 443.186C564.692 513.197 547.196 668.082 351.91 680.195C156.637 692.309 -31.8912 629.017 5.81187 554.959C43.5279 480.915 129.712 459.359 129.712 459.359V459.359Z" fill="white"/>
</svg>
